OpenSim_Sub11_EMGPreOp_GRF.mot
version=1
nRows=35
nColumns=19
inDegrees=no
endheader
time	lFx	lFy	lFz	lCOPx	lCOPy	lCOPz	rFx	rFy	rFz	rCOPx	rCOPy	rCOPz	lMx	lMy	lMz	rMx	rMy	rMz
44.13000000	-3.01138020	-3.89081126	1.75238865	-0.00000242	0	0.00000167	15.63333723	609.30297337	-39.81411750	0.55493460	0	-0.38842955	0	-0.00001234	0	0	-1.17940469	-0.00000000
44.14000000	-2.99490745	-3.94702708	1.55336582	-0.00001268	0	0.00000981	15.84635170	608.94858907	-39.07831524	0.55249415	0	-0.38850199	0	-0.00010109	0	0	-1.23810063	-0.00000000
44.15000000	-2.95241259	-4.02959192	1.34099464	-0.00002962	0	0.00002367	16.30613654	609.17728286	-38.32729086	0.54982261	0	-0.38860987	0	-0.00026241	0	0	-1.29923649	0
44.16000000	-2.85084094	-4.04478625	1.10731187	-0.00004252	0	0.00003521	16.83988327	610.04862012	-37.59731264	0.54717994	0	-0.38870865	0	-0.00041933	0	0	-1.37485249	0
44.17000000	-2.72027638	-3.97162243	0.86333690	-0.00001773	0	0.00001793	17.40278057	611.66362160	-36.94130242	0.54462074	0	-0.38876906	0	-0.00028763	0	0	-1.44194648	0
44.18000000	-2.60425023	-3.90942063	0.63404063	0.00010700	0	-0.00007868	18.02081648	613.99357046	-36.36838669	0.54198092	0	-0.38878221	0	0.00071026	0	0	-1.49482063	0
44.19000000	-2.48829364	-3.90048418	0.43151282	0.00039452	0	-0.00030863	18.69988474	616.86308505	-35.93550254	0.53937726	0	-0.38874136	0	0.00326322	0	0	-1.52859669	0
44.20000000	-2.34532355	-3.85437699	0.27262366	0.00080104	0	-0.00064573	19.39766192	619.91106571	-35.63345836	0.53675595	0	-0.38866406	0	0.00728854	0	0	-1.56804402	0
44.21000000	-2.23793142	-3.81657475	0.13914914	0.00095431	0	-0.00080491	20.22827730	622.88485362	-35.47741125	0.53412688	0	-0.38856915	0	0.00992089	0	0	-1.61270600	0
44.22000000	-2.25440684	-3.91732578	0.02406589	-0.00011835	0	-0.00001358	21.17648338	625.51564406	-35.44720996	0.53133121	0	-0.38847028	0	0.00270937	0	0	-1.67999242	0
44.23000000	-2.43859122	-4.35879285	-0.03840411	-0.00398063	0	0.00301059	22.14141256	627.80741899	-35.55649526	0.52862178	0	-0.38835101	0	-0.02933126	0	0	-1.75341889	0.00000000
44.24000000	-2.66228680	-5.09127554	-0.07458880	-0.01172745	0	0.00926045	23.06343636	629.78477602	-35.78868380	0.52582149	0	-0.38820291	0	-0.09999392	0	0	-1.83342594	0
44.25000000	-2.42426568	-5.41087683	-0.31692859	-0.02077856	0	0.01691066	24.08095834	631.51078238	-36.11412661	0.52293354	0	-0.38798579	0	-0.19464700	0	0	-1.88202763	-0.00000000
44.26000000	-0.66937249	-3.60442668	-1.18834162	-0.01908968	0	0.01661285	25.22335084	632.88394716	-36.48467881	0.51989533	0	-0.38773836	0	-0.21623343	0	0	-1.90238560	-0.00000000
44.27000000	4.11101359	2.90567938	-3.25205889	0.02039712	0	-0.01330678	26.27735312	634.06659136	-36.86514320	0.51720757	0	-0.38746194	0	0.07664992	0	0	-1.89191640	0
44.28000000	13.16772630	17.21500095	-6.67892283	0.13477781	0	-0.10369757	27.17850280	635.03803299	-37.12332153	0.51466683	0	-0.38715876	0	1.05439305	0	0	-1.89621807	-0.00000000
44.29000000	25.62884327	40.71160683	-10.82202201	0.33492337	0	-0.26673893	27.94955174	635.93942567	-37.24851133	0.51239637	0	-0.38682109	0	2.93459629	0	0	-1.90888921	-0.00000000
44.30000000	36.14821610	69.59032077	-13.60771928	0.53358332	0	-0.43780803	28.56104401	636.70723291	-37.29621542	0.51023159	0	-0.38650333	0	5.09637957	0	0	-1.93466379	0.00000000
44.31000000	37.18018542	95.75817010	-12.58626706	0.64221122	0	-0.54201451	28.98733455	637.27237016	-37.34189866	0.50820734	0	-0.38622753	0	6.20039753	0	0	-1.94187340	0
44.32000000	28.72130690	115.81650837	-7.74775371	0.67899483	0	-0.58355556	29.37753124	637.38077664	-37.42180431	0.50609172	0	-0.38602286	0	5.61314022	0	0	-1.94329703	0
44.33000000	18.21604359	132.09953663	-2.28021693	0.68449029	0	-0.59213124	29.73316712	637.02834422	-37.55865703	0.50406344	0	-0.38584199	0	4.47844062	0	0	-1.97231519	-0.00000000
44.34000000	11.19161762	146.52804901	2.10010385	0.68085244	0	-0.58980432	30.03936539	636.35099686	-37.71213532	0.50226481	0	-0.38564112	0	3.52414531	0	0	-2.06556471	0
44.35000000	8.81726874	159.76963683	5.67805240	0.67472788	0	-0.58695735	30.30693279	635.53900096	-37.88943624	0.50073345	0	-0.38539197	0	2.77144002	0	0	-2.17602105	0
44.36000000	9.53777976	172.13024294	9.21996046	0.66707105	0	-0.58632881	30.70713202	634.44948364	-38.04693874	0.49924522	0	-0.38509099	0	1.96321156	0	0	-2.28107248	0
44.37000000	11.40407661	184.86299659	12.80904864	0.65949922	0	-0.58751238	31.27882571	632.51074793	-38.17696275	0.49765326	0	-0.38474175	0	1.08608092	0	0	-2.37091463	-0.00000000
44.38000000	12.95582489	199.66344001	16.20909660	0.65350209	0	-0.58949516	31.80629265	628.70656765	-38.31369043	0.49603346	0	-0.38432466	0	0.28792972	0	0	-2.41136987	0
44.39000000	13.27416346	217.55017163	19.43788559	0.64947574	0	-0.59149384	32.00650449	621.63288251	-38.39025511	0.49436415	0	-0.38381508	0	-0.36025202	0	0	-2.42516773	-0.00000000
44.40000000	12.37740313	238.44986624	22.68115405	0.64667977	0	-0.59318619	31.76476913	609.97553737	-38.34680010	0.49275000	0	-0.38318779	0	-0.87824849	0	0	-2.43679645	0
44.41000000	10.91885463	261.47235760	25.99726402	0.64389193	0	-0.59451310	30.99673275	593.34674893	-38.14218744	0.49134701	0	-0.38246122	0	-1.23919631	0	0	-2.43514676	0
44.42000000	9.53558834	285.54799669	29.35003910	0.64067093	0	-0.59547850	29.68706471	573.03205158	-37.68379173	0.49067255	0	-0.38168762	0	-1.46938059	0	0	-2.44198843	0
44.43000000	8.51302352	309.69554871	32.56165334	0.63736534	0	-0.59615977	27.97768550	550.73995794	-36.98149117	0.49047765	0	-0.38091677	0	-1.60577696	0	0	-2.46099910	0
44.44000000	7.84716819	333.07807589	35.47346698	0.63397733	0	-0.59666899	25.98739129	527.29224082	-36.25402572	0.49039392	0	-0.38010293	0	-1.70665983	0	0	-2.41218895	-0.00000000
44.45000000	7.45723968	355.46375151	37.97110447	0.63057915	0	-0.59721132	23.79666621	503.08673444	-35.58917470	0.49040428	0	-0.37910593	0	-1.73813381	0	0	-2.30613291	0
44.46000000	7.19749819	377.08991185	40.09768547	0.62771136	0	-0.59795272	21.43902440	478.72697508	-34.99681393	0.49093527	0	-0.37787156	0	-1.64178305	0	0	-2.21218100	-0.00000000
44.47000000	6.88253672	397.65225563	42.06838974	0.62551625	0	-0.59879675	19.12188432	454.44660840	-34.56712423	0.49140082	0	-0.37654613	0	-1.45820740	0	0	-2.12823040	0
